<svg width="92" height="87" viewBox="0 0 92 87" fill="none" xmlns="http://www.w3.org/2000/svg">
<path d="M46 0C20.5948 0 0 19.4755 0 43.5C0 67.5245 20.5948 87 46 87C71.4052 87 92 67.5245 92 43.5C91.9705 19.4871 71.3929 0.0278891 46 0ZM46 84.1936C22.234 84.1936 2.96774 65.9744 2.96774 43.5C2.96774 21.0256 22.234 2.80645 46 2.80645C69.7661 2.80645 89.0323 21.0256 89.0323 43.5C89.0061 65.9642 69.7553 84.1688 46 84.1936Z" fill="white"/>
<path d="M66.9848 23.6556C66.4054 23.1078 65.4661 23.1078 64.8866 23.6556L45.9999 41.5159L27.1132 23.6556C26.544 23.0982 25.6045 23.0827 25.015 23.621C24.4256 24.1594 24.4092 25.0478 24.9785 25.6052C24.9904 25.617 25.0026 25.6284 25.015 25.6398L43.9017 43.5L25.015 61.3603C24.4256 61.8988 24.4092 62.787 24.9787 63.3444C25.5481 63.9019 26.4874 63.9173 27.0769 63.3788C27.0893 63.3676 27.1013 63.356 27.1132 63.3444L45.9999 45.4842L64.8866 63.3444C65.4761 63.8829 66.4154 63.8675 66.9848 63.3101C67.5403 62.7663 67.5403 61.904 66.9848 61.3603L48.0981 43.5L66.9848 25.6398C67.5641 25.0918 67.5641 24.2036 66.9848 23.6556Z" fill="white"/>
</svg>
