<svg width="285" height="267" viewBox="0 0 285 267" fill="none" xmlns="http://www.w3.org/2000/svg">
<path d="M259.984 90.6056C266.072 103.36 269.368 117.001 269.7 130.818L252.347 139.487C246.984 142.168 242.998 146.543 241.207 151.712C239.417 156.882 239.958 162.455 242.719 167.286L253.999 187.009C243.801 203.174 229.168 216.871 211.415 226.868C193.662 236.866 173.346 242.851 152.293 244.286L153.065 253.157C174.725 251.687 195.677 245.75 214.206 235.834C232.734 225.918 248.311 212.305 259.66 196.11C271.008 179.916 277.806 161.601 279.495 142.667C281.184 123.732 277.717 104.718 269.378 87.1809L259.984 90.6056ZM251.823 163.307C250.224 160.509 249.911 157.283 250.948 154.29C251.985 151.297 254.292 148.765 257.398 147.212L269.421 141.206C268.446 153.507 265.131 165.579 259.613 176.926L251.823 163.307Z" fill="black"/>
<path d="M23.0927 171.884C18.3447 160.631 15.7209 148.777 15.3239 136.788L78.3822 122.087C82.173 121.201 85.5235 119.246 87.9145 116.526C90.3055 113.806 91.6035 110.473 91.6074 107.042V96.4235C91.6192 93.309 90.5572 90.2636 88.56 87.6844C86.5628 85.1051 83.7231 83.1118 80.4109 81.9641L78.3784 81.254C77.2903 80.8735 76.3171 80.2792 75.534 79.517C74.7509 78.7549 74.1791 77.8453 73.8628 76.8589C73.5465 75.8724 73.4942 74.8356 73.71 73.8287C73.9258 72.8217 74.4039 71.8717 75.1073 71.0523L75.3439 70.7742C76.2444 69.7227 77.4802 68.9272 78.8961 68.4876C80.312 68.048 81.8449 67.9839 83.3023 68.3033L108.833 73.8841C111.818 74.5277 114.942 74.4889 117.904 73.7715C120.867 73.054 123.568 71.6821 125.748 69.7877L140.01 57.3198C142.537 55.1246 144.248 52.3149 144.922 49.2568C145.595 46.1987 145.199 43.0342 143.785 40.1759L135.044 22.3469C137.523 22.2205 140.008 22.1573 142.5 22.1573C155.791 22.1456 169.001 23.9555 181.651 27.5212L184.779 19.0541C166.483 13.9047 147.156 12.1589 128.041 13.9289C108.927 15.6989 90.4476 20.9454 73.791 29.3314L78.888 37.0338C92.9237 29.9482 108.383 25.2797 124.428 23.2807L134.429 43.6812C135.035 44.9064 135.205 46.2628 134.916 47.5736C134.627 48.8843 133.894 50.0886 132.81 51.0294L118.55 63.4967C117.615 64.309 116.457 64.8972 115.186 65.2047C113.916 65.5122 112.577 65.5286 111.297 65.2524L85.7668 59.6722C82.366 58.9254 78.7885 59.0743 75.4841 60.1001C72.1798 61.1259 69.2962 62.9829 67.1959 65.4376L66.9587 65.7157C65.3179 67.6277 64.2027 69.8443 63.6994 72.1937C63.1961 74.5431 63.3182 76.9623 64.0564 79.2638C64.7945 81.5653 66.1288 83.6873 67.956 85.4655C69.7831 87.2438 72.0539 88.6304 74.5926 89.5181L76.6252 90.2282C78.0454 90.7192 79.2633 91.573 80.1202 92.6781C80.9771 93.7832 81.4331 95.0885 81.4288 96.4235V107.042C81.4271 108.512 80.8709 109.941 79.8464 111.106C78.8219 112.272 77.3862 113.11 75.7619 113.49L15.4435 127.552C16.4742 110.759 21.8362 94.387 31.1282 79.6617C40.4201 64.9363 53.4015 52.2388 69.1006 42.5194L63.2212 35.2564C38.5218 50.5291 20.2696 72.493 11.2896 97.7487C2.30959 123.004 3.10257 150.143 13.5458 174.965L23.0927 171.884Z" fill="black"/>
<path d="M190.849 137.832H226.474C231.196 137.828 235.724 136.186 239.063 133.266C242.403 130.347 244.281 126.389 244.286 122.261V111.138H234.108V122.261C234.106 124.03 233.301 125.726 231.869 126.978C230.438 128.229 228.498 128.932 226.474 128.934H190.849C184.775 128.934 178.95 131.044 174.655 134.798C170.36 138.553 167.947 143.645 167.947 148.955C167.947 154.265 170.36 159.357 174.655 163.112C178.95 166.866 184.775 168.976 190.849 168.976H206.117C209.491 168.976 212.727 170.148 215.113 172.234C217.499 174.319 218.84 177.149 218.84 180.098C218.84 183.048 217.499 185.877 215.113 187.963C212.727 190.049 209.491 191.221 206.117 191.221H157.768V200.119H206.117C212.191 200.119 218.016 198.01 222.311 194.255C226.606 190.501 229.018 185.408 229.018 180.098C229.018 174.789 226.606 169.696 222.311 165.942C218.016 162.187 212.191 160.078 206.117 160.078H190.849C187.474 160.078 184.238 158.906 181.852 156.82C179.466 154.734 178.126 151.905 178.126 148.955C178.126 146.005 179.466 143.176 181.852 141.09C184.238 139.004 187.474 137.832 190.849 137.832Z" fill="black"/>
<path d="M163.457 62.1986C159.237 62.1888 155.151 63.4931 151.932 65.8778C148.712 68.2625 146.569 71.5716 145.887 75.212L144.341 83.3193C144.048 84.8788 143.13 86.2961 141.75 87.3174C140.37 88.3387 138.62 88.8972 136.812 88.8929H129.777C125.055 88.8976 120.527 90.5397 117.188 93.4589C113.848 96.3782 111.97 100.336 111.965 104.465V108.996C111.962 110.977 112.394 112.941 113.237 114.78L116.78 122.524C117.754 124.656 119.255 126.573 121.176 128.138C123.097 129.704 125.391 130.878 127.892 131.577C130.393 132.276 133.041 132.483 135.644 132.182C138.248 131.882 140.743 131.081 142.951 129.839L191.625 102.484C195.324 100.411 198.015 97.2142 199.178 93.5096C200.341 89.805 199.894 85.8552 197.923 82.4217L191.279 70.8069C189.809 68.2145 187.538 66.034 184.723 64.5125C181.907 62.991 178.661 62.1894 175.351 62.1986H163.457ZM182.18 74.7861L188.823 86.4014C189.667 87.8728 189.859 89.5655 189.36 91.1531C188.862 92.7407 187.708 94.1106 186.123 94.9987L137.449 122.353C136.502 122.885 135.433 123.228 134.317 123.356C133.202 123.484 132.067 123.396 130.996 123.096C129.924 122.797 128.941 122.294 128.118 121.623C127.294 120.953 126.65 120.132 126.232 119.218L122.689 111.474C122.328 110.686 122.142 109.845 122.143 108.996V104.465C122.145 102.695 122.95 100.999 124.382 99.7478C125.813 98.4966 127.753 97.7929 129.777 97.791H136.812C141.032 97.8008 145.117 96.4964 148.337 94.1118C151.557 91.7271 153.699 88.418 154.381 84.7775L155.927 76.6702C156.22 75.1107 157.139 73.6934 158.519 72.6722C159.898 71.6509 161.649 71.0924 163.457 71.0967H175.353C176.772 71.0928 178.163 71.4364 179.37 72.0885C180.576 72.7405 181.55 73.675 182.18 74.7861Z" fill="black"/>
<path d="M136.3 147.464L127.707 151.971C126.106 152.811 124.781 153.999 123.86 155.42C122.94 156.841 122.457 158.446 122.457 160.078C122.457 161.711 122.94 163.315 123.86 164.736C124.781 166.157 126.106 167.345 127.707 168.185L136.299 172.69C137.94 173.551 139.813 174.015 141.727 174.037C143.641 174.058 145.527 173.635 147.192 172.81C148.858 171.986 150.243 170.79 151.207 169.345C152.171 167.899 152.679 166.256 152.679 164.583V155.573C152.679 153.9 152.171 152.257 151.207 150.812C150.244 149.366 148.858 148.171 147.193 147.346C145.527 146.522 143.642 146.099 141.728 146.12C139.814 146.141 137.941 146.605 136.3 147.466V147.464ZM142.5 164.583C142.5 164.681 142.47 164.778 142.414 164.863C142.357 164.948 142.275 165.018 142.177 165.067C142.079 165.115 141.968 165.14 141.856 165.139C141.743 165.137 141.633 165.11 141.537 165.059L132.945 160.555C132.85 160.505 132.772 160.435 132.718 160.352C132.664 160.268 132.636 160.174 132.636 160.078C132.636 159.982 132.664 159.887 132.718 159.804C132.772 159.72 132.85 159.65 132.945 159.601L141.538 155.096C141.634 155.046 141.744 155.019 141.857 155.018C141.969 155.016 142.08 155.041 142.178 155.09C142.276 155.138 142.357 155.209 142.414 155.294C142.47 155.379 142.5 155.475 142.5 155.573V164.583Z" fill="black"/>
<path d="M178.125 217.916H167.947V226.814H178.125V217.916Z" fill="black"/>
<path d="M203.572 209.018H193.393V217.916H203.572V209.018Z" fill="black"/>
<path d="M88.3884 133.843L71.2502 138.837C69.7202 139.283 68.3332 140.041 67.2037 141.047C66.0741 142.053 65.2343 143.28 64.7535 144.626C64.2726 145.972 64.1644 147.398 64.4379 148.788C64.7114 150.177 65.3586 151.49 66.3263 152.618L74.4692 162.109C76.0302 163.928 78.3291 165.156 80.8935 165.54C83.4579 165.924 86.0932 165.435 88.258 164.174L97.2533 158.931C98.6489 158.12 99.7931 157.019 100.584 155.727C101.375 154.435 101.788 152.992 101.786 151.527V142.285C101.786 140.875 101.403 139.485 100.668 138.23C99.9329 136.975 98.8673 135.891 97.5589 135.066C96.2505 134.242 94.7367 133.701 93.1423 133.488C91.5479 133.276 89.9185 133.398 88.3884 133.843ZM91.6074 151.528L82.6114 156.772L74.4686 147.28L91.6068 142.286L91.6074 151.528Z" fill="black"/>
<path d="M209.131 70.1615L235.126 100.461C235.6 101.013 236.214 101.462 236.921 101.771C237.628 102.079 238.407 102.24 239.197 102.24C239.987 102.24 240.766 102.079 241.473 101.771C242.18 101.462 242.794 101.013 243.269 100.461L269.263 70.1615C277.279 64.0615 282.62 55.7154 284.373 46.5519C286.125 37.3883 284.179 27.9773 278.869 19.9296L270.058 24.3854C274.225 30.7046 275.725 38.1016 274.295 45.2879C272.865 52.4741 268.597 58.9941 262.233 63.7121C261.943 63.9267 261.682 64.1692 261.455 64.4351L239.197 90.3763L216.942 64.4351C216.714 64.1692 216.453 63.9267 216.163 63.7121C212.571 61.0513 209.618 57.7944 207.475 54.1299C205.332 50.4653 204.041 46.4658 203.676 42.3624C203.312 38.259 203.882 34.1332 205.353 30.2234C206.823 26.3137 209.166 22.6975 212.245 19.5841C215.324 16.4706 219.079 13.9216 223.292 12.0844C227.505 10.2471 232.092 9.15812 236.79 8.88028C241.487 8.60244 246.201 9.14129 250.658 10.4657C255.116 11.7901 259.229 13.8737 262.76 16.5962L269.496 9.92263C260.358 2.92489 248.415 -0.61302 236.293 0.0872145C224.172 0.787449 212.865 5.66846 204.86 13.6565C196.855 21.6445 192.808 32.0852 193.609 42.6818C194.41 53.2783 199.994 63.1627 209.131 70.1604V70.1615Z" fill="black"/>
<path d="M218.84 39.9535C218.84 43.4733 220.034 46.914 222.271 49.8406C224.508 52.7671 227.687 55.0481 231.407 56.3951C235.126 57.742 239.22 58.0945 243.169 57.4078C247.117 56.7211 250.745 55.0262 253.592 52.5373C256.439 50.0485 258.378 46.8775 259.163 43.4254C259.949 39.9732 259.546 36.395 258.005 33.1432C256.464 29.8913 253.855 27.1119 250.507 25.1564C247.159 23.201 243.223 22.1572 239.197 22.1572C233.8 22.1625 228.625 24.0392 224.809 27.3755C220.993 30.7118 218.846 35.2353 218.84 39.9535ZM249.376 39.9535C249.376 41.7134 248.779 43.4337 247.66 44.897C246.542 46.3603 244.952 47.5008 243.092 48.1743C241.232 48.8478 239.186 49.024 237.211 48.6806C235.237 48.3373 233.423 47.4898 232 46.2454C230.576 45.001 229.607 43.4155 229.214 41.6894C228.821 39.9634 229.023 38.1742 229.793 36.5483C230.564 34.9224 231.868 33.5327 233.542 32.555C235.216 31.5772 237.184 31.0554 239.197 31.0554C241.896 31.0582 244.483 31.9965 246.391 33.6646C248.299 35.3328 249.372 37.5944 249.376 39.9535Z" fill="black"/>
<path d="M152.679 217.915C152.679 217.349 152.555 216.788 152.315 216.263L142.136 194.018C141.759 193.192 141.107 192.484 140.264 191.986C139.422 191.487 138.428 191.221 137.411 191.221H111.894C111.577 188.775 110.243 186.516 108.144 184.875C106.045 183.234 103.329 182.326 100.514 182.323H11.4509C8.41503 182.326 5.5045 183.382 3.3578 185.258C1.2111 187.135 0.00353569 189.679 0 192.333V209.017H10.1786V192.333C10.1786 192.038 10.3126 191.755 10.5513 191.547C10.7899 191.338 11.1135 191.221 11.4509 191.221H100.514C100.851 191.221 101.175 191.338 101.413 191.547C101.652 191.755 101.786 192.038 101.786 192.333V235.711H10.1786V217.915H0V240.16C0 241.34 0.536193 242.472 1.49062 243.306C2.44505 244.141 3.73953 244.609 5.0893 244.609H10.823C10.0477 247.239 9.97089 249.989 10.5986 252.648C11.2263 255.307 12.5418 257.806 14.4445 259.952C16.3471 262.099 18.7864 263.836 21.5755 265.031C24.3646 266.227 27.4296 266.848 30.5358 266.848C33.642 266.848 36.707 266.227 39.4961 265.031C42.2852 263.836 44.7245 262.099 46.6271 259.952C48.5298 257.806 49.8453 255.307 50.473 252.648C51.1007 249.989 51.0239 247.239 50.2486 244.609H102.43C101.655 247.239 101.578 249.989 102.206 252.648C102.834 255.307 104.149 257.806 106.052 259.952C107.954 262.099 110.394 263.836 113.183 265.031C115.972 266.227 119.037 266.848 122.143 266.848C125.249 266.848 128.314 266.227 131.103 265.031C133.893 263.836 136.332 262.099 138.235 259.952C140.137 257.806 141.453 255.307 142.08 252.648C142.708 249.989 142.631 247.239 141.856 244.609H147.59C148.939 244.609 150.234 244.141 151.188 243.306C152.143 242.472 152.679 241.34 152.679 240.16V217.915ZM140.073 213.466H111.965V200.119H133.965L140.073 213.466ZM40.7144 249.058C40.714 250.423 40.3545 251.769 39.6638 252.993C38.9731 254.217 37.9696 255.285 36.7311 256.116C35.4925 256.947 34.052 257.517 32.521 257.783C30.99 258.049 29.4094 258.004 27.9016 257.651C26.3938 257.298 24.9991 256.646 23.8253 255.746C22.6516 254.847 21.7303 253.723 21.1327 252.463C20.535 251.202 20.2771 249.838 20.3788 248.476C20.4805 247.114 20.9391 245.791 21.7192 244.609H39.3524C40.2455 245.962 40.7153 247.497 40.7144 249.058ZM132.322 249.058C132.321 250.423 131.962 251.769 131.271 252.993C130.58 254.217 129.577 255.285 128.338 256.116C127.1 256.947 125.659 257.517 124.128 257.783C122.597 258.049 121.017 258.004 119.509 257.651C118.001 257.298 116.606 256.646 115.433 255.746C114.259 254.847 113.338 253.723 112.74 252.463C112.142 251.202 111.884 249.838 111.986 248.476C112.088 247.114 112.547 245.791 113.327 244.609H130.96C131.853 245.962 132.323 247.497 132.322 249.058ZM111.965 235.711V222.364H142.5V235.711H111.965Z" fill="black"/>
<path d="M91.6074 200.119H20.3572V209.018H91.6074V200.119Z" fill="black"/>
<path d="M91.6074 217.916H20.3572V226.814H91.6074V217.916Z" fill="black"/>
</svg>
