<?xml version="1.0"?>
<svg xmlns="http://www.w3.org/2000/svg" viewBox="0 0 64 64" width="512" height="512"><g id="protect-protection-sheild-hand-virus"><path d="M58,2a4,4,0,0,0-4,4V24.36a4.007,4.007,0,0,0-4.37,1.88L43.67,36.57a5.009,5.009,0,0,0-.67,2.5V54H42a1,1,0,0,0-1,1v6a1,1,0,0,0,1,1H58a1,1,0,0,0,1-1V55a1,1,0,0,0-1-1H57V48.31a3.029,3.029,0,0,1,.72-1.95l3.08-3.59A5.017,5.017,0,0,0,62,39.52V6A4,4,0,0,0,58,2ZM45,60H43V56h2Zm4,0H47V56h2Zm4,0H51V56h2Zm4,0H55V56h2Zm3-20.48a3.009,3.009,0,0,1-.72,1.95L56.2,45.06A5.017,5.017,0,0,0,55,48.31V54H45V39.07a3.062,3.062,0,0,1,.4-1.5l5.97-10.33a2,2,0,0,1,3.66.48,1.969,1.969,0,0,1-.2,1.52L48.33,40.5l1.73,1,6.5-11.26A3.96,3.96,0,0,0,56,25.51V6a2,2,0,0,1,4,0Z"/><path d="M22,54H21V39.07a5.009,5.009,0,0,0-.67-2.5L14.37,26.24A4.007,4.007,0,0,0,10,24.36V6A4,4,0,0,0,2,6V39.52a5.017,5.017,0,0,0,1.2,3.25l3.08,3.59A3.029,3.029,0,0,1,7,48.31V54H6a1,1,0,0,0-1,1v6a1,1,0,0,0,1,1H22a1,1,0,0,0,1-1V55A1,1,0,0,0,22,54ZM9,60H7V56H9ZM7.8,45.06,4.72,41.47A3.009,3.009,0,0,1,4,39.52V6A2,2,0,0,1,8,6V25.51a3.96,3.96,0,0,0-.56,4.73l6.5,11.26,1.73-1L9.17,29.24a1.969,1.969,0,0,1-.2-1.52,2,2,0,0,1,3.66-.48L18.6,37.57a3.062,3.062,0,0,1,.4,1.5V54H9V48.31A5.017,5.017,0,0,0,7.8,45.06ZM13,60H11V56h2Zm4,0H15V56h2Zm4,0H19V56h2Z"/><path d="M48.35,8.06l-16-6a1.051,1.051,0,0,0-.7,0l-16,6A1.007,1.007,0,0,0,15,9V21a14.538,14.538,0,0,0,4.39,10.46L31.28,43.7a1.014,1.014,0,0,0,1.44,0L44.61,31.46A14.538,14.538,0,0,0,49,21V9A1.007,1.007,0,0,0,48.35,8.06ZM47,21a12.591,12.591,0,0,1-3.82,9.06L32,41.57,20.82,30.06a.01.01,0,0,1-.01-.01A12.582,12.582,0,0,1,17,21V9.69L32,4.07,47,9.69Z"/><path d="M44.38,11.08l-12-5a.916.916,0,0,0-.76,0l-12,5A.987.987,0,0,0,19,12v8.86a10.922,10.922,0,0,0,3.22,7.78l9.07,9.07a1.014,1.014,0,0,0,1.42,0l9.07-9.07A10.922,10.922,0,0,0,45,20.86V12A.987.987,0,0,0,44.38,11.08ZM32,35.59,30.41,34h3.18Zm6-6L35.59,32H28.41L26,29.59V29a1,1,0,0,1,1-1H37a1,1,0,0,1,1,1ZM29,18h6v1a3,3,0,0,1-6,0Zm-1-2a1,1,0,0,1-1-1V14h7a1,1,0,0,1,1,1v1Zm5,7.9V26H31V23.9a5.05,5.05,0,0,0,2,0Zm10-3.04a8.942,8.942,0,0,1-2.64,6.36l-.6.61A3,3,0,0,0,37,26H35V22.97A4.952,4.952,0,0,0,37,19V15a3.009,3.009,0,0,0-3-3H26a1,1,0,0,0-1,1v2a3.01,3.01,0,0,0,2,2.82V19a4.952,4.952,0,0,0,2,3.97V26H27a3,3,0,0,0-2.76,1.83l-.6-.61A8.942,8.942,0,0,1,21,20.86V12.67L32,8.08l11,4.59Z"/></g></svg>
