<svg width="313" height="228" viewBox="0 0 313 228" fill="none" xmlns="http://www.w3.org/2000/svg">
<path d="M134.665 40.0189C134.665 37.4216 132.613 35.3171 130.08 35.3171C127.548 35.3171 125.495 37.4216 125.495 40.0189V44.5707C125.495 47.168 127.548 49.2725 130.08 49.2725C132.613 49.2725 134.665 47.168 134.665 44.5707V40.0189Z" fill="black"/>
<path d="M130.08 118.92C127.548 118.92 125.495 121.025 125.495 123.622V128.174C125.495 130.772 127.548 132.876 130.08 132.876C132.613 132.876 134.665 130.772 134.665 128.174V123.622C134.665 121.025 132.613 118.92 130.08 118.92Z" fill="black"/>
<path d="M280.294 147.781H248.186C245.653 147.781 243.601 149.886 243.601 152.483C243.601 155.08 245.653 157.185 248.186 157.185H280.294C282.826 157.185 284.879 155.08 284.879 152.483C284.879 149.886 282.826 147.781 280.294 147.781Z" fill="black"/>
<path d="M235.815 115.888C234.025 114.051 231.122 114.051 229.331 115.885C227.54 117.721 227.539 120.698 229.328 122.535L230.145 123.372C231.935 125.208 234.837 125.21 236.629 123.375C238.42 121.539 238.421 118.562 236.631 116.725L235.815 115.888Z" fill="black"/>
<path d="M299.151 115.887C297.36 114.051 294.457 114.051 292.667 115.887L291.85 116.724C290.059 118.561 290.059 121.537 291.85 123.373C293.642 125.209 296.544 125.209 298.334 123.373L299.151 122.536C300.941 120.7 300.941 117.723 299.151 115.887Z" fill="black"/>
<path d="M132.117 171.17C122.676 171.17 114.995 179.046 114.995 188.728C114.995 198.41 122.675 206.286 132.117 206.286C141.559 206.286 149.24 198.41 149.24 188.728C149.24 179.046 141.559 171.17 132.117 171.17ZM132.117 196.883C127.732 196.883 124.165 193.224 124.165 188.727C124.165 184.231 127.732 180.572 132.117 180.572C136.502 180.572 140.07 184.231 140.07 188.727C140.07 193.224 136.502 196.883 132.117 196.883Z" fill="black"/>
<path d="M313 18.217C313 8.29157 305.125 0.216064 295.446 0.216064C272.526 0.216064 223.314 0.216064 202.912 0.216064C192.628 0.216064 183.849 7.75183 182.039 18.133L161.437 136.307L153.409 147.427V60.0815C153.409 57.4843 151.357 55.3799 148.824 55.3799C146.291 55.3799 144.239 57.4843 144.239 60.0815V152.132C140.432 150.802 136.357 150.069 132.117 150.069C126.323 150.069 120.831 151.42 115.922 153.825V30.7515C115.922 29.1373 117.203 27.8234 118.777 27.8234H144.239V41.2825C144.239 43.8797 146.291 45.9842 148.824 45.9842C151.357 45.9842 153.409 43.8797 153.409 41.2825V27.8234H160.408C162.94 27.8234 164.992 25.7189 164.992 23.1217C164.992 20.5246 162.94 18.4201 160.408 18.4201C149.84 18.4201 128.721 18.4201 118.777 18.4201C112.146 18.4201 106.751 23.9517 106.751 30.7515V36.4568L99.3878 43.4791C81.2595 60.7686 89.9636 83.2154 89.9654 83.2787C82.5922 83.851 76.7632 90.1813 76.7632 97.8857V176.534H68.2065C68.2065 169.521 68.2065 117.305 68.2065 110.487C68.2065 107.889 66.1542 105.785 63.6215 105.785H12.9485C10.4158 105.785 8.36358 107.889 8.36358 110.487V176.534H4.58496C2.05223 176.534 0 178.639 0 181.236C0 183.833 2.05223 185.938 4.58496 185.938H76.7638V191.771C76.7638 194.368 78.8161 196.472 81.3488 196.472H95.1801C98.6879 214.088 113.917 227.384 132.117 227.384C145.33 227.384 156.969 220.371 163.703 209.791H187.628C190.16 209.791 192.212 207.687 192.212 205.09C192.212 202.492 190.16 200.388 187.628 200.388H168.058C169.197 196.707 169.815 192.79 169.815 188.727C169.815 186.835 169.675 184.975 169.418 183.154H232.946C230.65 187.421 229.34 192.32 229.34 197.528C229.34 198.493 229.389 199.446 229.477 200.388H205.959C203.426 200.388 201.374 202.492 201.374 205.09C201.374 207.687 203.426 209.791 205.959 209.791H231.92C236.492 220.153 246.662 227.384 258.455 227.384C270.248 227.384 280.419 220.153 284.991 209.791H303.077C308.548 209.791 312.999 205.227 312.999 199.616C313 164.061 313 63.4623 313 18.217ZM17.5347 115.188H33.7013V119.066C33.7013 121.663 35.7535 123.767 38.2862 123.767C40.819 123.767 42.8712 121.663 42.8712 119.066V115.188H59.0372V141.16H17.5341V115.188H17.5347ZM17.5347 176.534V150.563H33.7013V154.441C33.7013 157.038 35.7535 159.142 38.2862 159.142C40.819 159.142 42.8712 157.038 42.8712 154.441V150.563H59.0372V176.534H17.5347ZM276.04 173.751C271.15 169.94 265.058 167.672 258.456 167.672C251.855 167.672 245.762 169.94 240.873 173.751H224.649C224.649 164.861 224.649 119.808 224.649 110.899C224.649 110.811 224.719 110.739 224.804 110.739H303.83V173.751H276.04ZM257.21 92.6355H270.481V101.335H235.082V97.7647C235.082 94.9362 237.325 92.6355 240.084 92.6355H257.21ZM191.066 19.7886C192.093 13.8965 197.075 9.61931 202.912 9.61931H215.479V18.9843C215.479 21.5815 217.531 23.6859 220.064 23.6859C222.597 23.6859 224.649 21.5815 224.649 18.9843V9.61931H235.789V18.9843C235.789 21.5815 237.841 23.6859 240.374 23.6859C242.907 23.6859 244.959 21.5815 244.959 18.9843V9.61931H295.446C300.068 9.61931 303.83 13.4759 303.83 18.217V101.335H279.651V88.5364L281.364 81.8155C282.004 79.303 280.536 76.7353 278.086 76.0783C275.634 75.422 273.131 76.9265 272.491 79.439L271.526 83.2323H263.147L272.188 47.7482C272.653 45.9196 274.266 44.6426 276.109 44.6426C277.374 44.6426 278.542 45.2313 279.316 46.2581C280.09 47.2856 280.349 48.5945 280.03 49.8495L277.125 61.2513C276.485 63.7638 277.953 66.3322 280.403 66.9885C282.857 67.6449 285.358 66.1397 285.997 63.6278L288.902 52.226C289.945 48.1312 289.096 43.8609 286.573 40.5108C284.05 37.1608 280.236 35.24 276.108 35.24C270.096 35.24 264.835 39.4063 263.314 45.3723L253.669 83.2336H240.083C232.269 83.2336 225.911 89.7525 225.911 97.766V101.337H224.804C219.662 101.337 215.478 105.627 215.478 110.9V133.519H195.421V92.5854C195.421 91.1404 195.162 89.76 194.712 88.4724L202.738 78.1596L205.167 80.4577C207.029 82.218 209.929 82.0983 211.647 80.19C213.364 78.2812 213.246 75.3066 211.386 73.5457L199.902 62.6824C198.041 60.9222 195.141 61.0419 193.423 62.9501C191.706 64.859 191.823 67.8335 193.684 69.5945L195.981 71.7672L188.428 81.4708C186.926 80.768 185.262 80.3656 183.505 80.3656H180.505L191.066 19.7886ZM178.893 89.7676H183.505C185.02 89.7676 186.252 91.0313 186.252 92.5841V133.518H171.242L178.893 89.7676ZM106.752 49.2985V83.2323H99.6324L98.4287 79.5857C92.327 61.1002 106.672 49.4339 106.752 49.2985ZM85.9337 97.8857C85.9337 94.9907 88.2311 92.6349 91.0542 92.6349H106.752V160.154C99.5517 166.882 94.9007 176.426 94.4599 187.069H85.9337V97.8857ZM132.117 217.98C116.387 217.98 103.589 204.857 103.589 188.727C103.589 172.596 116.387 159.473 132.117 159.473C147.847 159.473 160.645 172.596 160.645 188.727C160.645 204.857 147.848 217.98 132.117 217.98ZM156.355 159.15L168.072 142.921H215.48V173.751H166.87C164.53 168.063 160.897 163.07 156.355 159.15ZM258.456 217.98C247.458 217.98 238.511 208.805 238.511 197.527C238.511 186.25 247.458 177.074 258.456 177.074C269.454 177.074 278.402 186.25 278.402 197.527C278.402 208.805 269.454 217.98 258.456 217.98ZM303.831 199.616C303.831 200.041 303.492 200.387 303.078 200.387H287.435C287.523 199.446 287.572 198.493 287.572 197.527C287.572 192.319 286.262 187.421 283.966 183.154H303.831V199.616Z" fill="black"/>
<path d="M258.456 191.341C255.924 191.341 253.872 193.445 253.872 196.042V199.013C253.872 201.61 255.924 203.715 258.456 203.715C260.989 203.715 263.041 201.61 263.041 199.013V196.042C263.041 193.446 260.989 191.341 258.456 191.341Z" fill="black"/>
</svg>
