<svg width="268" height="255" viewBox="0 0 268 255" fill="none" xmlns="http://www.w3.org/2000/svg">
<path d="M71.467 229.085H62.5337V237.412H71.467V229.085Z" fill="black"/>
<path d="M165.267 179.127H89.334V116.68C89.334 115.576 88.8634 114.517 88.0258 113.736C87.1881 112.955 86.052 112.517 84.8674 112.517H4.46774C3.28312 112.517 2.14701 112.955 1.30935 113.736C0.47169 114.517 0.00109863 115.576 0.00109863 116.68V249.901C0.00109863 251.005 0.47169 252.064 1.30935 252.845C2.14701 253.625 3.28312 254.064 4.46774 254.064H165.267C166.452 254.064 167.588 253.625 168.425 252.845C169.263 252.064 169.734 251.005 169.734 249.901V183.29C169.734 182.186 169.263 181.127 168.425 180.347C167.588 179.566 166.452 179.127 165.267 179.127ZM116.134 187.454H134V204.106H116.134V187.454ZM35.7343 120.843H53.6008V137.496H35.7343V120.843ZM8.93439 120.843H26.801V141.659C26.801 142.763 27.2716 143.822 28.1092 144.603C28.9469 145.383 30.083 145.822 31.2676 145.822H58.0675C59.2521 145.822 60.3882 145.383 61.2259 144.603C62.0635 143.822 62.5341 142.763 62.5341 141.659V120.843H80.4007V179.127H8.93439V120.843ZM35.7343 187.454H53.6008V204.106H35.7343V187.454ZM8.93439 187.454H26.801V208.269C26.801 209.373 27.2716 210.432 28.1092 211.213C28.9469 211.994 30.083 212.432 31.2676 212.432H58.0675C59.2521 212.432 60.3882 211.994 61.2259 211.213C62.0635 210.432 62.5341 209.373 62.5341 208.269V187.454H80.4007V245.738H8.93439V187.454ZM160.8 245.738H89.334V187.454H107.201V208.269C107.201 209.373 107.671 210.432 108.509 211.213C109.347 211.994 110.483 212.432 111.667 212.432H138.467C139.652 212.432 140.788 211.994 141.626 211.213C142.463 210.432 142.934 209.373 142.934 208.269V187.454H160.8V245.738Z" fill="black"/>
<path d="M151.867 229.085H142.933V237.412H151.867V229.085Z" fill="black"/>
<path d="M71.467 162.475H62.5337V170.801H71.467V162.475Z" fill="black"/>
<path d="M262.485 54.1166C262.828 54.1942 263.18 54.2333 263.533 54.2331C264.315 54.2326 265.084 54.0408 265.763 53.6771C266.441 53.3133 267.006 52.7902 267.4 52.1599C267.805 51.4943 268.013 50.7396 267.999 49.9742V33.4174C267.999 32.4832 267.662 31.5762 267.042 30.8422C266.422 30.1082 265.555 29.59 264.581 29.3708L135.048 0.228766C134.359 0.0731587 133.641 0.0731587 132.952 0.228766L3.41928 29.3708C2.44496 29.59 1.57805 30.1082 0.957974 30.8422C0.337901 31.5762 0.000705267 32.4832 0.000619111 33.4174V49.9518C-0.014647 50.8236 0.252727 51.6793 0.767765 52.4071C1.27886 53.1076 2.00676 53.6464 2.85457 53.9518C3.70237 54.2572 4.62986 54.3147 5.51358 54.1166L13.4006 52.3425V104.191H22.3339V50.3328L134 25.2103L245.666 50.3328V245.738H218.866V83.3751C218.866 82.271 218.396 81.2121 217.558 80.4314C216.72 79.6506 215.584 79.212 214.4 79.212H53.6004C52.4157 79.212 51.2796 79.6506 50.442 80.4314C49.6043 81.2121 49.1337 82.271 49.1337 83.3751V100.028C49.1337 101.132 49.6043 102.191 50.442 102.972C51.2796 103.752 52.4157 104.191 53.6004 104.191H209.933V112.517H98.2668V120.843H209.933V129.17H98.2668V137.496H209.933V145.822H98.2668V154.149H209.933V245.738H178.666V254.064H267.999V245.738H254.599V52.3425L262.485 54.1166ZM58.067 95.8646V87.5383H209.933V95.8646H58.067ZM134 16.7648C133.647 16.7646 133.295 16.8038 132.952 16.8814L8.93391 44.7822V36.6959L134 8.55818L259.066 36.6959V44.7828L135.048 16.8814C134.705 16.8038 134.353 16.7646 134 16.7648Z" fill="black"/>
<path d="M142.933 66.7227C146.487 66.7227 149.895 65.4068 152.408 63.0646C154.921 60.7223 156.333 57.5456 156.333 54.2332C156.333 50.9207 154.921 47.744 152.408 45.4017C149.895 43.0595 146.487 41.7437 142.933 41.7437H125.067C121.513 41.7437 118.104 43.0595 115.591 45.4017C113.079 47.744 111.667 50.9207 111.667 54.2332C111.667 57.5456 113.079 60.7223 115.591 63.0646C118.104 65.4068 121.513 66.7227 125.067 66.7227H142.933ZM120.6 54.2332C120.601 53.1294 121.072 52.0712 121.91 51.2907C122.747 50.5102 123.882 50.0712 125.067 50.07H142.933C144.118 50.07 145.254 50.5086 146.092 51.2894C146.929 52.0701 147.4 53.129 147.4 54.2332C147.4 55.3373 146.929 56.3962 146.092 57.177C145.254 57.9577 144.118 58.3963 142.933 58.3963H125.067C123.882 58.3951 122.747 57.9561 121.91 57.1756C121.072 56.3951 120.601 55.3369 120.6 54.2332Z" fill="black"/>
</svg>
